<svg width="220" height="220" viewBox="0 0 220 220" fill="none" xmlns="http://www.w3.org/2000/svg">
<path d="M190 130V50C180.926 53.5334 172.685 58.9135 165.799 65.7991C158.913 72.6848 153.533 80.9259 150 90L190 130Z" fill="#4DFF32"/>
<path d="M150 90C144.3 62.7 144.7 43 150 10L190 50L150 90Z" fill="#319828"/>
<path d="M150 90V10L110 50C120.674 65.7511 134.249 79.3261 150 90V90Z" fill="#FFFF00"/>
<path d="M110 210V130C110 130 141.7 154.3 150 170L110 210Z" fill="#4DFF32"/>
<path d="M150 170V90C132.481 98.362 118.362 112.481 110 130L150 170Z" fill="#4DFF32"/>
<path d="M110 130C104.067 103.663 104.067 76.3366 110 50L150 90L110 130Z" fill="#EAFF00"/>
<path d="M110 130L110 50C93 57.5 78.5 69 70 90C75.9 107 88.1 120.9 110 130Z" fill="#319828"/>
<path d="M70 170V90L110 130L70 170Z" fill="#319828"/>
<path d="M70 90C63.9 63 65.1 36.4 70 10L110 50L70 90Z" fill="#EAFF00"/>
<path d="M70 90L70 10L30 50C35.4 65 48.3 77.9 70 90Z" fill="#4DFF32"/>
<path d="M30 130L30 50L70 90L30 130Z" fill="#4DFF32"/>
</svg>
