<svg width="934" height="720" viewBox="0 0 934 720" fill="none" xmlns="http://www.w3.org/2000/svg">
<path d="M692.667 399.569V314.152C692.667 314.152 809.307 252.834 833.013 239.841C856.72 226.848 933.059 177.829 933.059 177.829C933.059 177.829 829.753 207.242 787.177 223.338C744.601 239.434 703.358 262.892 703.358 262.892H644.822L576.521 285.938L520.273 294.839L415.263 299.808L375.098 336.126L341.583 354.18L405.738 378.238L472.859 429.347L528.548 485.037L692.667 399.569Z" fill="black"/>
<path d="M727.754 249.895L703.458 263.08H644.494L674.865 249.895H727.754Z" fill="url(#paint0_linear_847_56)"/>
<path d="M671.39 250.483L740.4 207.455L790.363 204.043L838.778 206.164L728.031 249.772L671.39 250.483Z" fill="url(#paint1_linear_847_56)"/>
<path d="M633.094 237.417L738.856 209.141C738.856 209.141 706.33 235.018 674.571 250.711C642.813 266.403 593.492 281.369 573.77 286.995C554.049 292.622 542.564 294.037 521.457 296.541C500.35 299.045 427.447 299.111 427.447 299.111L633.094 237.417Z" fill="url(#paint2_linear_847_56)"/>
<path d="M392.573 375.436C409.919 380.447 446.416 411.572 446.416 411.572L425.492 377.041C425.492 377.041 408.031 369.969 388.176 364.979C368.32 359.989 349.192 353.024 349.192 351.985C349.192 350.945 380.266 342.54 404.913 337.119C429.559 331.697 492.757 309.778 492.757 309.778C492.757 309.778 436.497 322.827 415.592 328.895C394.687 334.964 376.376 335.983 363.729 338.151C351.081 340.319 303.181 350.389 303.34 351.985C303.5 353.58 375.228 370.425 392.573 375.436Z" fill="url(#paint3_linear_847_56)"/>
<path d="M392.573 375.436C409.919 380.447 446.416 411.572 446.416 411.572L425.492 377.041C425.492 377.041 408.031 369.969 388.176 364.979C368.32 359.989 349.192 353.024 349.192 351.985C349.192 350.945 380.266 342.54 404.913 337.119C429.559 331.697 492.757 309.778 492.757 309.778C492.757 309.778 436.497 322.827 415.592 328.895C394.687 334.964 376.376 335.983 363.729 338.151C351.081 340.319 303.181 350.389 303.34 351.985C303.5 353.58 375.228 370.425 392.573 375.436Z" fill="url(#paint4_linear_847_56)"/>
<path d="M526.438 447.637C533.339 454.501 540.201 466.63 540.201 466.63L517.974 479.704C515.106 476.914 510.81 473.516 499.986 457.528C495.955 451.574 493.838 453.429 491.415 452.311C488.993 451.194 479.207 445.497 470.998 438.27C462.788 431.043 461.747 431.089 450.617 418.739C450.617 418.739 437.47 405.544 428.766 386.281C420.062 367.018 422.797 349.921 422.797 349.921C422.797 349.921 429.309 359.101 431.506 365.107C433.704 371.112 441.604 388.081 445.559 394.672C449.514 401.264 456.81 412.836 456.81 412.836C453.96 401.144 462.71 387.616 462.71 387.616C462.71 387.616 470.411 402.101 488.888 416.882C507.365 431.664 519.537 440.773 526.438 447.637Z" fill="url(#paint5_linear_847_56)"/>
<path d="M526.438 447.637C533.339 454.501 540.201 466.63 540.201 466.63L517.974 479.704C515.106 476.914 510.81 473.516 499.986 457.528C495.955 451.574 493.838 453.429 491.415 452.311C488.993 451.194 479.207 445.497 470.998 438.27C462.788 431.043 461.747 431.089 450.617 418.739C450.617 418.739 437.47 405.544 428.766 386.281C420.062 367.018 422.797 349.921 422.797 349.921C422.797 349.921 429.309 359.101 431.506 365.107C433.704 371.112 441.604 388.081 445.559 394.672C449.514 401.264 456.81 412.836 456.81 412.836C453.96 401.144 462.71 387.616 462.71 387.616C462.71 387.616 470.411 402.101 488.888 416.882C507.365 431.664 519.537 440.773 526.438 447.637Z" fill="url(#paint6_linear_847_56)"/>
<path d="M447.645 371.61L462.93 388.169C462.93 388.169 462.409 399.59 469.936 415.555C477.463 431.519 491.116 452.352 491.116 452.352C491.116 452.352 484.953 448.136 473.757 435.511C462.561 422.885 460.612 422.477 454.014 405.577C447.416 388.677 447.645 371.61 447.645 371.61Z" fill="url(#paint7_linear_847_56)"/>
<path d="M545.925 614.015L497.264 640.389L609.431 442.52C609.431 442.52 615.918 432.361 616.744 430.898C616.811 426.163 615.545 414.808 610.559 402.654C600.624 378.434 538.968 344.281 538.968 344.281L659.592 343.22L670.364 450.201L545.925 614.015Z" fill="url(#paint8_radial_847_56)"/>
<path d="M545.925 614.015L497.264 640.389L609.431 442.52C609.431 442.52 615.918 432.361 616.744 430.898C616.811 426.163 615.545 414.808 610.559 402.654C600.624 378.434 538.968 344.281 538.968 344.281L659.592 343.22L670.364 450.201L545.925 614.015Z" fill="url(#paint9_linear_847_56)"/>
<path d="M692.783 366.583V524.444L664.727 442.471C664.727 442.471 662.336 416.759 654.248 393.794C646.16 370.83 626.191 345.456 626.191 345.456H541.007L532.387 340.724H665.741L692.783 366.583Z" fill="url(#paint10_linear_847_56)"/>
<path d="M692.66 524.995L534.285 621.095L633.014 419.54L692.66 524.995Z" fill="url(#paint11_linear_847_56)"/>
<path d="M452.515 227.706H554.465L415.324 299.91L395.712 286.98C395.712 286.98 303.292 285.184 303.206 283.583C303.12 281.981 341.087 272.162 370.433 262.719C399.779 253.276 452.515 227.706 452.515 227.706Z" fill="#0B8ABA"/>
<path d="M747.604 178.261H933.721L839.432 206.075C839.432 206.075 759.111 204.261 741.29 208.782C723.469 213.304 663.852 226.442 615.033 249.194C566.213 271.946 506.607 289.664 486.867 293.514C467.126 297.363 455.191 297.316 435.948 298.781C416.706 300.246 415.168 299.843 415.168 299.843L423.563 295.551L600.994 226.442L675.661 200.94L747.604 178.261Z" fill="url(#paint12_linear_847_56)"/>
<path d="M406.213 159.58L330.34 47.4052L108.316 198.516L108.315 462.808L283.138 441.118L283.591 231.956L406.213 159.58Z" fill="black"/>
<path d="M701.149 193.161L673.074 175.295L554.646 227.872C554.646 227.872 496.091 257.886 474.333 269.35C452.576 280.814 424.014 295.378 424.014 295.378C424.014 295.378 430.488 294.408 441.705 292.4C452.923 290.392 492.18 280.315 509.373 272.674C526.567 265.032 611.77 224.914 636.414 214.598C661.057 204.282 701.149 193.161 701.149 193.161Z" fill="url(#paint13_linear_847_56)"/>
<path d="M673.75 175.652L406.503 0.0943298L330.33 47.4045L406.503 160.016L520.225 227.538H556.474L673.75 175.652Z" fill="url(#paint14_linear_847_56)"/>
<path d="M108.296 337.79L283.088 439.086L108.296 441.244L108.296 337.79Z" fill="#74A4CC"/>
<path d="M108.296 337.79L283.088 439.086L108.296 441.244L108.296 337.79Z" fill="#052B61"/>
<path d="M283.007 439.023L0.216461 440.029L98.8846 504.952H389.606L283.007 439.023Z" fill="url(#paint15_radial_847_56)"/>
<path d="M110.549 500.201H478.048L314.807 603.15H241.799L110.549 514.967V500.201Z" fill="#000A14"/>
<path d="M658.849 469.687C673.953 496.749 692.73 524.902 692.73 524.902C692.73 524.902 691.925 515.752 684.023 489.512C676.121 463.271 664.828 443.254 664.828 443.254C664.828 443.254 657.788 436.168 649.142 429.511C640.496 422.855 632.922 419.336 632.922 419.336C632.922 419.336 643.744 442.625 658.849 469.687Z" fill="#FEFE6F"/>
<path d="M610.047 425.985C610.047 425.985 603.327 412.476 592.486 400.732C581.645 388.987 579.195 386.888 565.021 379.975C550.847 373.061 540.658 370.863 540.658 370.863C540.658 370.863 565.906 380.722 580.541 395.357C595.177 409.993 594.293 418.187 594.293 418.187C594.293 418.187 558.893 388.282 547.675 385.449C536.457 382.616 483.313 355.452 482.523 356.067C481.733 356.681 483.801 366.429 483.801 366.429C483.801 366.429 450.487 340.965 448.599 342.582C446.711 344.199 467.348 374.754 476.846 388.004C481.06 393.883 497.268 410.225 510.06 425.985C526.1 441.375 538.795 464.898 538.795 464.898L558.321 454.007C558.321 454.007 534.405 432.804 515.421 418.187C496.438 403.569 492.783 376.818 492.783 376.818C492.783 376.818 503.097 383.169 511.118 394.32C519.138 405.471 532.535 420.593 540.658 429.533C548.781 438.473 559.45 452.606 559.45 452.606L579.429 441.375L610.047 425.985Z" fill="url(#paint16_linear_847_56)"/>
<path d="M610.047 425.985C610.047 425.985 603.327 412.476 592.486 400.732C581.645 388.987 579.195 386.888 565.021 379.975C550.847 373.061 540.658 370.863 540.658 370.863C540.658 370.863 565.906 380.722 580.541 395.357C595.177 409.993 594.293 418.187 594.293 418.187C594.293 418.187 558.893 388.282 547.675 385.449C536.457 382.616 483.313 355.452 482.523 356.067C481.733 356.681 483.801 366.429 483.801 366.429C483.801 366.429 450.487 340.965 448.599 342.582C446.711 344.199 467.348 374.754 476.846 388.004C481.06 393.883 497.268 410.225 510.06 425.985C526.1 441.375 538.795 464.898 538.795 464.898L558.321 454.007C558.321 454.007 534.405 432.804 515.421 418.187C496.438 403.569 492.783 376.818 492.783 376.818C492.783 376.818 503.097 383.169 511.118 394.32C519.138 405.471 532.535 420.593 540.658 429.533C548.781 438.473 559.45 452.606 559.45 452.606L579.429 441.375L610.047 425.985Z" fill="url(#paint17_radial_847_56)"/>
<path d="M395.165 719.684L314.375 602.624L477.79 500.409L608.442 423.038L616.751 430.872C616.751 430.872 587.612 495.167 558.254 554.741C528.897 614.316 476.063 668.448 476.063 668.448L395.165 719.684Z" fill="url(#paint18_linear_847_56)"/>
<path d="M680.259 307.988L786.503 352.629C786.503 352.629 765.837 348.263 730.136 342.124C694.435 335.984 683.278 325.057 603.511 327.136C523.743 329.214 501.933 338.441 501.933 338.441L463.828 337.106L540.878 304.182L623.745 297.154L680.259 307.988Z" fill="url(#paint19_linear_847_56)"/>
<path d="M740.633 317.468C757.264 329.167 800.709 356.565 800.709 356.565C800.709 356.565 769.512 346.99 752.791 340.592C736.07 334.195 694.717 313.474 671.021 307.455C647.325 301.436 596.36 299.017 574.947 302.211C553.535 305.404 507.481 321.694 507.481 321.694L464.27 337.137H404.55C484.848 311.382 523.034 298.91 572.084 291.98C621.135 285.05 657.284 291.419 711.877 291.059C711.877 291.059 724.002 305.769 740.633 317.468Z" fill="url(#paint20_linear_847_56)"/>
<defs>
<linearGradient id="paint0_linear_847_56" x1="725.125" y1="249.895" x2="647.771" y2="263.08" gradientUnits="userSpaceOnUse">
<stop stop-color="#87802F"/>
<stop offset="1" stop-color="#385433"/>
</linearGradient>
<linearGradient id="paint1_linear_847_56" x1="831.874" y1="206.164" x2="687.289" y2="249.826" gradientUnits="userSpaceOnUse">
<stop stop-color="#FAE430"/>
<stop offset="1" stop-color="#FCCF29"/>
</linearGradient>
<linearGradient id="paint2_linear_847_56" x1="731.657" y1="209.141" x2="478.609" y2="299.111" gradientUnits="userSpaceOnUse">
<stop stop-color="#454722"/>
<stop offset="0.602023" stop-color="#05565E"/>
<stop offset="1" stop-color="#15AFB4"/>
</linearGradient>
<linearGradient id="paint3_linear_847_56" x1="314.942" y1="350.051" x2="434.877" y2="405.053" gradientUnits="userSpaceOnUse">
<stop stop-color="#099DD1"/>
<stop offset="1" stop-color="#132641"/>
</linearGradient>
<linearGradient id="paint4_linear_847_56" x1="396.299" y1="312.237" x2="381.785" y2="356.926" gradientUnits="userSpaceOnUse">
<stop offset="0.0356279" stop-color="#0096CD"/>
<stop offset="0.64964" stop-color="#0B8AB9"/>
<stop offset="1" stop-color="#0A9ACD" stop-opacity="0"/>
</linearGradient>
<linearGradient id="paint5_linear_847_56" x1="466.345" y1="390.57" x2="527.7" y2="476.211" gradientUnits="userSpaceOnUse">
<stop stop-color="#0B5294"/>
<stop offset="0.463542" stop-color="#0869B1"/>
<stop offset="1" stop-color="#0475BC"/>
</linearGradient>
<linearGradient id="paint6_linear_847_56" x1="399.175" y1="399.641" x2="461.767" y2="425.854" gradientUnits="userSpaceOnUse">
<stop offset="0.228962" stop-color="#08499A"/>
<stop offset="0.622498" stop-color="#0B70B4"/>
<stop offset="0.898604" stop-color="#0078C9"/>
</linearGradient>
<linearGradient id="paint7_linear_847_56" x1="446.941" y1="374.144" x2="485.113" y2="446.451" gradientUnits="userSpaceOnUse">
<stop stop-color="#0B0D28"/>
<stop offset="1" stop-color="#111827"/>
</linearGradient>
<radialGradient id="paint8_radial_847_56" cx="0" cy="0" r="1" gradientUnits="userSpaceOnUse" gradientTransform="translate(550.582 346.869) rotate(38.8808) scale(151.009 87.9625)">
<stop stop-color="#061D41"/>
<stop offset="1" stop-color="#832E19"/>
</radialGradient>
<linearGradient id="paint9_linear_847_56" x1="504.7" y1="635.447" x2="667.704" y2="463.588" gradientUnits="userSpaceOnUse">
<stop offset="0.0858045" stop-color="#717DA8"/>
<stop offset="0.463999" stop-color="#1F2956"/>
<stop offset="0.729167" stop-color="#1C1E27"/>
<stop offset="1" stop-color="#7C2B22" stop-opacity="0"/>
</linearGradient>
<linearGradient id="paint10_linear_847_56" x1="612.585" y1="340.724" x2="612.585" y2="524.444" gradientUnits="userSpaceOnUse">
<stop stop-color="#FDF337"/>
<stop offset="1" stop-color="#FB8F26"/>
</linearGradient>
<linearGradient id="paint11_linear_847_56" x1="541.397" y1="618.998" x2="643.512" y2="429.083" gradientUnits="userSpaceOnUse">
<stop stop-color="#FF734E"/>
<stop offset="1" stop-color="#FEB82E"/>
</linearGradient>
<linearGradient id="paint12_linear_847_56" x1="927.739" y1="178.26" x2="421.452" y2="298.78" gradientUnits="userSpaceOnUse">
<stop stop-color="#FCF246"/>
<stop offset="0.304249" stop-color="#ACCC40"/>
<stop offset="0.505208" stop-color="#5B8A27"/>
<stop offset="0.763405" stop-color="#0EB4C0"/>
<stop offset="1" stop-color="#12B7C4"/>
</linearGradient>
<linearGradient id="paint13_linear_847_56" x1="673.574" y1="175.295" x2="453.876" y2="282.08" gradientUnits="userSpaceOnUse">
<stop stop-color="#FEF83D"/>
<stop offset="1" stop-color="#C1E29A"/>
</linearGradient>
<linearGradient id="paint14_linear_847_56" x1="409.707" y1="0.0943503" x2="559.375" y2="220.519" gradientUnits="userSpaceOnUse">
<stop offset="0.0145686" stop-color="#FFF944"/>
<stop offset="1" stop-color="#D7F561"/>
</linearGradient>
<radialGradient id="paint15_radial_847_56" cx="0" cy="0" r="1" gradientUnits="userSpaceOnUse" gradientTransform="translate(42.9932 414.044) rotate(22.3101) scale(264.919 2663.71)">
<stop offset="0.0147537" stop-color="#03BDF2"/>
<stop offset="1" stop-color="#054C98"/>
</radialGradient>
<linearGradient id="paint16_linear_847_56" x1="561.912" y1="458.18" x2="451.122" y2="347.811" gradientUnits="userSpaceOnUse">
<stop stop-color="#1251A6"/>
<stop offset="1" stop-color="#101640"/>
</linearGradient>
<radialGradient id="paint17_radial_847_56" cx="0" cy="0" r="1" gradientUnits="userSpaceOnUse" gradientTransform="translate(603.835 411.633) rotate(179.605) scale(86.1583 113.74)">
<stop stop-color="#633029"/>
<stop offset="1" stop-opacity="0"/>
</radialGradient>
<linearGradient id="paint18_linear_847_56" x1="609.931" y1="423.05" x2="396.176" y2="719.684" gradientUnits="userSpaceOnUse">
<stop stop-color="#FFDA36"/>
<stop offset="1" stop-color="#FF695D"/>
</linearGradient>
<linearGradient id="paint19_linear_847_56" x1="769.124" y1="342.086" x2="490.054" y2="331.564" gradientUnits="userSpaceOnUse">
<stop stop-color="#CB4C28"/>
<stop offset="0.427083" stop-color="#5C3522"/>
<stop offset="0.760417" stop-color="#015A7A"/>
<stop offset="1" stop-color="#065384"/>
</linearGradient>
<linearGradient id="paint20_linear_847_56" x1="778.329" y1="338.466" x2="462.076" y2="338.466" gradientUnits="userSpaceOnUse">
<stop stop-color="#FFF01F"/>
<stop offset="0.666667" stop-color="#2BBA94"/>
<stop offset="1" stop-color="#066B91"/>
</linearGradient>
</defs>
</svg>
